<svg xmlns="http://www.w3.org/2000/svg" version="1.1" xmlns:xlink="http://www.w3.org/1999/xlink" xmlns:svgjs="http://svgjs.dev/svgjs" width="1000" height="1000" viewBox="0 0 1000 1000"><rect width="1000" height="1000" fill="#ffffff"></rect><g transform="matrix(0.7,0,0,0.7,149.57575865022272,341.50007427634984)"><svg viewBox="0 0 396 179" data-background-color="#ffffff" preserveAspectRatio="xMidYMid meet" height="452" width="1000" xmlns="http://www.w3.org/2000/svg" xmlns:xlink="http://www.w3.org/1999/xlink"><g id="tight-bounds" transform="matrix(1,0,0,1,0.24000060784027255,0.16967984997907593)"><svg viewBox="0 0 395.52 178.66064030004185" height="178.66064030004185" width="395.52"><g><svg viewBox="0 0 616.2797839912574 278.38021038594644" height="178.66064030004185" width="395.52"><g><rect width="8.260357902728648" height="278.38021038594644" x="210.27480239062805" y="0" fill="#000000" opacity="1" stroke-width="0" stroke="transparent" fill-opacity="1" class="rect-o-0" data-fill-palette-color="primary" rx="1%" id="o-0" data-palette-color="#fce44d"></rect></g><g transform="matrix(1,0,0,1,240.1591338607092,0.6924880855371782)"><svg viewBox="0 0 376.12065013054826 276.9952342148721" height="276.9952342148721" width="376.12065013054826"><g id="textblocktransform"><svg viewBox="0 0 376.12065013054826 276.9952342148721" height="276.9952342148721" width="376.12065013054826" id="textblock"><g><svg viewBox="0 0 376.12065013054826 198.764" height="198.764" width="376.12065013054826"><g transform="matrix(1,0,0,1,0,0)"><svg width="376.12065013054826" viewBox="3.499997854232788 -34.29999923706055 146.0500030517578 73.0999984741211" height="198.764" data-palette-color="#fce44d"><svg></svg><svg></svg><g class="wordmark-text-0" data-fill-palette-color="primary" id="text-0"><path xmlns="http://www.w3.org/2000/svg" d="M19.4-34.3c1.933 0 3.683 0.433 5.25 1.3 1.567 0.867 2.793 2.057 3.68 3.57 0.88 1.52 1.32 3.23 1.32 5.13v0c0 1.9-0.44 3.607-1.32 5.12-0.887 1.52-2.113 2.713-3.68 3.58-1.567 0.867-3.317 1.3-5.25 1.3v0h-9.9v14.3h-4.9v-34.3zM18.95-29.85h-9.45v11.1h9.45c1.567 0 2.927-0.543 4.08-1.63 1.147-1.08 1.72-2.387 1.72-3.92v0c0-1.567-0.573-2.883-1.72-3.95-1.153-1.067-2.513-1.6-4.08-1.6zM44.8-34.3h5.4l13.4 34.3h-5.3l-2.9-7.45h-16.4l-2.85 7.45h-4.75zM53.7-11.9l-6.3-16.5h-0.3l-6.35 16.5zM83.2-34.3c1.933 0 3.683 0.433 5.25 1.3 1.567 0.867 2.793 2.057 3.68 3.57 0.88 1.52 1.32 3.23 1.32 5.13v0c0 1.9-0.44 3.607-1.32 5.12-0.887 1.52-2.113 2.713-3.68 3.58-1.567 0.867-3.317 1.3-5.25 1.3v0h-9.9v14.3h-4.9v-34.3zM82.75-29.85h-9.45v11.1h9.45c1.567 0 2.927-0.543 4.08-1.63 1.147-1.08 1.72-2.387 1.72-3.92v0c0-1.567-0.573-2.883-1.72-3.95-1.153-1.067-2.513-1.6-4.08-1.6zM108.6-34.3h5.4l13.4 34.3h-5.3l-2.9-7.45h-16.4l-2.85 7.45h-4.75zM117.5-11.9l-6.3-16.5h-0.3l-6.35 16.5zM149.55-34.3v24.95c0 3.033-0.933 5.433-2.8 7.2-1.867 1.767-4.317 2.65-7.35 2.65v0h-0.45c-3.033 0-5.443-0.85-7.23-2.55-1.78-1.7-2.67-4.133-2.67-7.3v0-1.05h4.9v1.35c0 1.5 0.507 2.723 1.52 3.67 1.02 0.953 2.313 1.43 3.88 1.43v0c1.567 0 2.84-0.467 3.82-1.4 0.987-0.933 1.48-2.167 1.48-3.7v0-25.25z" fill="#000000" fill-rule="nonzero" stroke="none" stroke-width="1" stroke-linecap="butt" stroke-linejoin="miter" stroke-miterlimit="10" stroke-dasharray="" stroke-dashoffset="0" font-family="none" font-weight="none" font-size="none" text-anchor="none" style="mix-blend-mode: normal" data-fill-palette-color="primary" opacity="1"></path><path xmlns="http://www.w3.org/2000/svg" d="M15.8 3.5c2.4 0 4.433 0.483 6.1 1.45 1.667 0.967 2.917 2.217 3.75 3.75 0.833 1.533 1.25 3.15 1.25 4.85v0c0 2.4-0.483 4.367-1.45 5.9-0.967 1.533-2.517 3.117-4.65 4.75v0l-9.55 7.3c-0.767 0.533-1.36 1.007-1.78 1.42-0.413 0.42-0.62 0.73-0.62 0.93v0h18.2v4.45h-23.55v-1.2c0-1.7 0.41-3.327 1.23-4.88 0.813-1.547 1.953-2.87 3.42-3.97v0l9.95-7.5c1.4-1.133 2.4-2.25 3-3.35 0.6-1.1 0.9-2.317 0.9-3.65v0c0-1-0.25-1.943-0.75-2.83-0.5-0.88-1.233-1.597-2.2-2.15-0.967-0.547-2.133-0.82-3.5-0.82v0c-1.4 0-2.64 0.3-3.72 0.9-1.087 0.6-1.93 1.4-2.53 2.4-0.6 1-0.9 2.1-0.9 3.3v0 0.7c0 0.267 0.017 0.467 0.05 0.6v0h-4.9l-0.05-0.5v-0.4c0-1.933 0.433-3.777 1.3-5.53 0.867-1.747 2.217-3.17 4.05-4.27 1.833-1.1 4.15-1.65 6.95-1.65zM34.2 32.75h5.05v5.55h-5.05zM58.35 3.5c2.1 0 4.027 0.5 5.78 1.5 1.747 1 3.137 2.383 4.17 4.15 1.033 1.767 1.55 3.75 1.55 5.95v0 12.15c0 2.167-0.5 4.123-1.5 5.87-1 1.753-2.373 3.137-4.12 4.15-1.753 1.02-3.713 1.53-5.88 1.53v0h-0.65c-2.2 0-4.173-0.51-5.92-1.53-1.753-1.013-3.113-2.403-4.08-4.17-0.967-1.767-1.45-3.717-1.45-5.85v0-12.15c0-2.233 0.51-4.233 1.53-6 1.013-1.767 2.387-3.143 4.12-4.13 1.733-0.98 3.667-1.47 5.8-1.47v0zM58.05 7.95c-1.933 0-3.567 0.64-4.9 1.92-1.333 1.287-2 2.897-2 4.83v0 12.9c0 1.933 0.667 3.54 2 4.82 1.333 1.287 2.967 1.93 4.9 1.93v0c2 0 3.65-0.65 4.95-1.95 1.3-1.3 1.95-2.9 1.95-4.8v0-12.9c0-1.9-0.65-3.5-1.95-4.8-1.3-1.3-2.95-1.95-4.95-1.95z" fill="#000000" fill-rule="nonzero" stroke="none" stroke-width="1" stroke-linecap="butt" stroke-linejoin="miter" stroke-miterlimit="10" stroke-dasharray="" stroke-dashoffset="0" font-family="none" font-weight="none" font-size="none" text-anchor="none" style="mix-blend-mode: normal" data-fill-palette-color="primary" opacity="1"></path></g></svg></g></svg></g><g transform="matrix(1,0,0,1,0,220.3879735673525)"><svg viewBox="0 0 165.43726382878134 56.60726064751959" height="56.60726064751959" width="165.43726382878134"><g transform="matrix(1,0,0,1,0,0)"><svg width="165.43726382878134" viewBox="3.450000047683716 -35.400001525878906 105.63999938964844 36.150001525878906" height="56.60726064751959" data-palette-color="#fce44d"><path d="M22.8-26.05L22.8-26.05Q22.8-24.1 22.1-22.38 21.4-20.65 20.23-19.05 19.05-17.45 17.55-15.95 16.05-14.45 14.5-12.95L14.5-12.95Q13.2-11.7 11.98-10.43 10.75-9.15 9.78-7.88 8.8-6.6 8.22-5.38 7.65-4.15 7.65-2.95L7.65-2.95 7.65-2.85 24-2.85 24 0 4.05 0Q4.05-0.1 4.03-0.38 4-0.65 4-1.2L4-1.2Q4-3.55 4.85-5.58 5.7-7.6 7.03-9.4 8.35-11.2 9.98-12.75 11.6-14.3 13.1-15.75L13.1-15.75Q14.35-16.95 15.48-18.07 16.6-19.2 17.45-20.4 18.3-21.6 18.8-22.95 19.3-24.3 19.3-25.9L19.3-25.9Q19.3-29.4 17.43-30.93 15.55-32.45 12.7-32.45L12.7-32.45Q11.1-32.45 9.85-32.05 8.6-31.65 7.68-31.13 6.75-30.6 6.1-30.05 5.45-29.5 5.15-29.2L5.15-29.2 3.45-31.45Q3.75-31.8 4.53-32.48 5.3-33.15 6.48-33.8 7.65-34.45 9.2-34.93 10.75-35.4 12.65-35.4L12.65-35.4Q17.7-35.4 20.25-32.93 22.8-30.45 22.8-26.05ZM34.5-25.05L33.55-27.55Q36.55-28.6 38.9-30.23 41.25-31.85 43.55-34.65L43.55-34.65 45.85-34.65 45.85 0 42.6 0 42.6-29.7Q42.05-29.1 41.17-28.45 40.3-27.8 39.2-27.18 38.1-26.55 36.9-25.98 35.7-25.4 34.5-25.05L34.5-25.05ZM68.15-2.25L68.15-2.25Q72.9-2.25 74.95-4.23 77-6.2 77-9.55L77-9.55Q77-11.75 76.17-13.2 75.35-14.65 73.92-15.53 72.5-16.4 70.62-16.78 68.75-17.15 66.65-17.15L66.65-17.15 66.15-17.15 66.15-19.85 67.3-19.85Q68.65-19.85 70.07-20.13 71.5-20.4 72.67-21.15 73.85-21.9 74.62-23.15 75.4-24.4 75.4-26.35L75.4-26.35Q75.4-28 74.85-29.18 74.3-30.35 73.37-31.05 72.45-31.75 71.22-32.08 70-32.4 68.65-32.4L68.65-32.4Q65.95-32.4 64.45-31.65 62.95-30.9 62-30.25L62-30.25 60.6-32.8Q61.1-33.15 61.87-33.6 62.65-34.05 63.7-34.45 64.75-34.85 66.02-35.13 67.3-35.4 68.8-35.4L68.8-35.4Q71.4-35.4 73.27-34.75 75.15-34.1 76.4-32.93 77.65-31.75 78.25-30.13 78.85-28.5 78.85-26.6L78.85-26.6Q78.85-23.55 77.22-21.63 75.6-19.7 73.05-18.85L73.05-18.85Q74.45-18.5 75.77-17.78 77.1-17.05 78.15-15.93 79.2-14.8 79.85-13.2 80.5-11.6 80.5-9.45L80.5-9.45Q80.5-7.25 79.72-5.4 78.95-3.55 77.42-2.18 75.9-0.8 73.55-0.03 71.2 0.75 68.05 0.75L68.05 0.75Q66.4 0.75 65.02 0.53 63.65 0.3 62.6 0 61.55-0.3 60.82-0.6 60.1-0.9 59.75-1.1L59.75-1.1 60.6-4Q60.9-3.8 61.6-3.5 62.3-3.2 63.27-2.93 64.25-2.65 65.47-2.45 66.7-2.25 68.15-2.25ZM96.79 0L93.34 0Q93.64-4.15 94.87-8.8 96.09-13.45 97.87-17.8 99.64-22.15 101.72-25.8 103.79-29.45 105.74-31.65L105.74-31.65 88.04-31.65 88.04-34.65 109.09-34.65 109.09-31.75Q107.39-29.7 105.37-26.28 103.34-22.85 101.54-18.57 99.74-14.3 98.42-9.5 97.09-4.7 96.79 0L96.79 0Z" opacity="1" transform="matrix(1,0,0,1,0,0)" fill="#000000" class="slogan-text-1" data-fill-palette-color="secondary" id="text-1"></path></svg></g></svg></g></svg></g></svg></g><g transform="matrix(1,0,0,1,0,0.6924880855371782)"><svg viewBox="0 0 188.65082882327556 276.9952342148721" height="276.9952342148721" width="188.65082882327556"><g><svg xmlns="http://www.w3.org/2000/svg" xmlns:xlink="http://www.w3.org/1999/xlink" version="1.1" x="0" y="0" viewBox="1.5260009765625 2.8929996490478516 97.25900268554688 142.80499267578125" enable-background="new 0 0 100 147.809" xml:space="preserve" height="276.9952342148721" width="188.65082882327556" class="icon-icon-0" data-fill-palette-color="accent" id="icon-0"><path d="M72.673 45.27V27.897c0-1.537-1.246-2.784-2.782-2.784H4.396c-1.537 0-2.784 1.247-2.784 2.784v115.018c0 1.537 1.247 2.783 2.784 2.783h65.495c1.536 0 2.782-1.246 2.782-2.783v-20.789c14.57-1.032 26.112-13.207 26.112-28.036V73.307C98.785 58.478 87.243 46.301 72.673 45.27zM67.105 140.132H7.179v-10.693h59.926V140.132zM16.87 113.229V56.271c0-1.537 1.247-2.784 2.784-2.784 1.537 0 2.784 1.247 2.784 2.784v56.958c0 1.537-1.247 2.783-2.784 2.783C18.117 116.012 16.87 114.766 16.87 113.229zM34.359 113.229V56.271c0-1.537 1.247-2.784 2.784-2.784s2.784 1.247 2.784 2.784v56.958c0 1.537-1.247 2.783-2.784 2.783S34.359 114.766 34.359 113.229zM51.848 113.229V56.271c0-1.537 1.246-2.784 2.783-2.784s2.783 1.247 2.783 2.784v56.958c0 1.537-1.246 2.783-2.783 2.783S51.848 114.766 51.848 113.229zM67.105 41.913H7.179V30.681h59.926V41.913zM72.673 62.08c5.339 0.951 9.411 5.618 9.411 11.228V94.09c0 5.608-4.072 10.275-9.411 11.228V62.08zM93.218 94.09c0 11.759-9.048 21.438-20.545 22.455v-5.603c8.421-0.996 14.979-8.167 14.979-16.854V73.307c0-8.687-6.559-15.857-14.979-16.854v-5.603c11.497 1.018 20.545 10.696 20.545 22.455V94.09z" fill="#000000" data-fill-palette-color="accent"></path><path d="M70.009 23.555c-1.519 0-2.75-1.231-2.75-2.75 0-3.089-3.849-12.412-10.851-12.412H17.877c-7.002 0-10.851 9.322-10.851 12.412 0 1.519-1.231 2.75-2.75 2.75s-2.75-1.231-2.75-2.75c0-5.356 5.563-17.912 16.351-17.912h38.531c10.788 0 16.351 12.555 16.351 17.912C72.759 22.323 71.527 23.555 70.009 23.555z" fill="#000000" data-fill-palette-color="accent"></path></svg></g></svg></g></svg></g><defs></defs></svg><rect width="395.52" height="178.66064030004185" fill="none" stroke="none" visibility="hidden"></rect></g></svg></g></svg>