<?xml version="1.0" encoding="UTF-8"?>
<!DOCTYPE svg PUBLIC "-//W3C//DTD SVG 1.1//EN" "http://www.w3.org/Graphics/SVG/1.1/DTD/svg11.dtd">
<svg xmlns="http://www.w3.org/2000/svg" version="1.1" width="1620px" height="900px" style="shape-rendering:geometricPrecision; text-rendering:geometricPrecision; image-rendering:optimizeQuality; fill-rule:evenodd; clip-rule:evenodd" xmlns:xlink="http://www.w3.org/1999/xlink">
<g><path style="opacity:0.987" fill="#fefffe" d="M 306.5,-0.5 C 311.167,-0.5 315.833,-0.5 320.5,-0.5C 339.933,8.94488 353.433,23.9449 361,44.5C 367.843,62.9474 370.343,81.9474 368.5,101.5C 422.544,106.345 471.544,124.511 515.5,156C 572.54,199.044 616.374,252.877 647,317.5C 661.58,348.076 673.08,379.742 681.5,412.5C 619.167,410.557 562.834,391.39 512.5,355C 473.253,325.753 439.419,291.253 411,251.5C 384.732,213.987 361.232,174.654 340.5,133.5C 319.984,174.796 296.484,214.129 270,251.5C 235.528,300.31 193.028,340.476 142.5,372C 98.3317,397.793 50.665,411.293 -0.5,412.5C -0.5,410.833 -0.5,409.167 -0.5,407.5C 16.4503,347.937 42.2836,292.604 77,241.5C 112.429,190.064 158.262,150.898 214.5,124C 244.681,110.746 276.181,102.913 309,100.5C 312.876,84.3712 314.209,68.0378 313,51.5C 312.074,46.7211 310.741,42.0544 309,37.5C 304.185,28.6881 299.018,20.1881 293.5,12C 293.919,8.57531 295.586,5.90865 298.5,4C 301.099,2.20496 303.766,0.704964 306.5,-0.5 Z"/></g>
<g><path style="opacity:0.986" fill="#fefffe" d="M 697.5,44.5 C 734.168,44.3333 770.835,44.5 807.5,45C 856.414,47.5851 879.914,73.4185 878,122.5C 878.667,146.167 878.667,169.833 878,193.5C 877.971,208.319 874.637,222.319 868,235.5C 855.915,249.793 840.415,257.627 821.5,259C 808.517,259.984 795.517,260.484 782.5,260.5C 782.5,308.5 782.5,356.5 782.5,404.5C 754.167,404.5 725.833,404.5 697.5,404.5C 697.5,284.5 697.5,164.5 697.5,44.5 Z M 782.5,107.5 C 790.875,106.38 798.042,108.714 804,114.5C 805.743,117.957 806.743,121.623 807,125.5C 807.667,142.833 807.667,160.167 807,177.5C 805.999,192.776 797.832,199.109 782.5,196.5C 782.5,166.833 782.5,137.167 782.5,107.5 Z"/></g>
<g><path style="opacity:0.989" fill="#fefffe" d="M 917.5,44.5 C 957.833,44.5 998.167,44.5 1038.5,44.5C 1054.66,164.473 1070.66,284.473 1086.5,404.5C 1057.83,404.5 1029.17,404.5 1000.5,404.5C 998.974,383.473 997.308,362.473 995.5,341.5C 985.856,340.502 976.19,340.168 966.5,340.5C 965.29,361.558 963.624,382.558 961.5,403.5C 932.508,404.5 903.508,404.833 874.5,404.5C 888.688,284.473 903.021,164.473 917.5,44.5 Z M 980.5,131.5 C 984.932,179.342 989.266,227.342 993.5,275.5C 984.167,275.5 974.833,275.5 965.5,275.5C 969.913,227.446 974.913,179.446 980.5,131.5 Z"/></g>
<g><path style="opacity:0.986" fill="#fefffe" d="M 1102.5,44.5 C 1139.17,44.3333 1175.83,44.5 1212.5,45C 1261.41,47.5851 1284.91,73.4185 1283,122.5C 1283.67,146.167 1283.67,169.833 1283,193.5C 1282.97,208.319 1279.64,222.319 1273,235.5C 1260.91,249.793 1245.41,257.627 1226.5,259C 1213.52,259.984 1200.52,260.484 1187.5,260.5C 1187.5,308.5 1187.5,356.5 1187.5,404.5C 1159.17,404.5 1130.83,404.5 1102.5,404.5C 1102.5,284.5 1102.5,164.5 1102.5,44.5 Z M 1187.5,107.5 C 1195.88,106.38 1203.04,108.714 1209,114.5C 1210.74,117.957 1211.74,121.623 1212,125.5C 1212.67,142.833 1212.67,160.167 1212,177.5C 1211,192.776 1202.83,199.109 1187.5,196.5C 1187.5,166.833 1187.5,137.167 1187.5,107.5 Z"/></g>
<g><path style="opacity:0.989" fill="#fefffe" d="M 1321.5,44.5 C 1361.83,44.5 1402.17,44.5 1442.5,44.5C 1458.66,164.473 1474.66,284.473 1490.5,404.5C 1461.83,404.5 1433.17,404.5 1404.5,404.5C 1402.97,383.473 1401.31,362.473 1399.5,341.5C 1389.86,340.502 1380.19,340.168 1370.5,340.5C 1369.29,361.558 1367.62,382.558 1365.5,403.5C 1336.51,404.5 1307.51,404.833 1278.5,404.5C 1292.69,284.473 1307.02,164.473 1321.5,44.5 Z M 1384.5,131.5 C 1388.93,179.342 1393.27,227.342 1397.5,275.5C 1388.17,275.5 1378.83,275.5 1369.5,275.5C 1373.91,227.446 1378.91,179.446 1384.5,131.5 Z"/></g>
<g><path style="opacity:0.993" fill="#fefffe" d="M 1619.5,44.5 C 1619.5,146.5 1619.5,248.5 1619.5,350.5C 1617.72,382.783 1600.72,400.617 1568.5,404C 1546.84,404.5 1525.17,404.667 1503.5,404.5C 1503.5,383.5 1503.5,362.5 1503.5,341.5C 1510.59,341.884 1517.59,341.384 1524.5,340C 1529.55,337.28 1532.72,333.113 1534,327.5C 1535.48,233.186 1535.98,138.853 1535.5,44.5C 1563.5,44.5 1591.5,44.5 1619.5,44.5 Z"/></g>
<g><path style="opacity:0.988" fill="#fefffe" d="M 339.5,167.5 C 341.433,168.642 342.933,170.308 344,172.5C 375.602,232.059 414.769,286.059 461.5,334.5C 447.468,406.594 407.135,457.927 340.5,488.5C 273.721,457.806 233.388,406.306 219.5,334C 268.201,284.764 308.201,229.264 339.5,167.5 Z"/></g>
<g><path style="opacity:0.986" fill="#fefffe" d="M 204.5,345.5 C 208.355,356.563 212.189,367.896 216,379.5C 224.007,401.194 235.341,420.861 250,438.5C 225.129,501.42 189.295,557.253 142.5,606C 126.847,620.826 110.18,634.326 92.5,646.5C 57.2154,576.414 41.8821,502.081 46.5,423.5C 106.835,412.331 159.502,386.331 204.5,345.5 Z"/></g>
<g><path style="opacity:0.986" fill="#fefffe" d="M 474.5,345.5 C 498.557,365.379 524.557,382.545 552.5,397C 578.629,409.543 605.962,418.376 634.5,423.5C 639.261,502.103 623.928,576.436 588.5,646.5C 554.306,622.474 524.472,593.808 499,560.5C 471.839,523.203 449.006,483.203 430.5,440.5C 452.841,412.519 467.507,380.853 474.5,345.5 Z"/></g>
<g><path style="opacity:0.982" fill="#fefffe" d="M 735.5,410.5 C 754.49,408.572 772.823,411.072 790.5,418C 812.903,430.946 825.069,450.446 827,476.5C 828.059,497.21 824.725,517.21 817,536.5C 797.671,576.67 776.171,615.503 752.5,653C 775.498,653.5 798.498,653.667 821.5,653.5C 821.5,669.833 821.5,686.167 821.5,702.5C 774.5,702.5 727.5,702.5 680.5,702.5C 680.333,688.496 680.5,674.496 681,660.5C 706.098,614.64 730.431,568.307 754,521.5C 760.812,507.4 764.978,492.566 766.5,477C 766.439,472.031 765.606,467.197 764,462.5C 760.345,455.93 754.845,453.763 747.5,456C 744.272,457.563 742.105,460.063 741,463.5C 740.055,467.114 739.388,470.781 739,474.5C 738.5,487.829 738.333,501.163 738.5,514.5C 719.167,514.5 699.833,514.5 680.5,514.5C 680.052,497.099 680.886,479.765 683,462.5C 689.186,433.48 706.686,416.146 735.5,410.5 Z"/></g>
<g><path style="opacity:0.98" fill="#fefffe" d="M 968.5,410.5 C 997.374,406.582 1022.21,414.582 1043,434.5C 1051.61,446.061 1056.61,459.061 1058,473.5C 1059.61,527.149 1059.95,580.816 1059,634.5C 1059.44,664.817 1046.6,687.317 1020.5,702C 1014.37,704.449 1008.04,706.116 1001.5,707C 983.459,708.887 965.792,707.22 948.5,702C 930.256,693.696 918.423,679.863 913,660.5C 911.524,655.594 910.524,650.594 910,645.5C 908.379,593.187 908.045,540.854 909,488.5C 909.247,471.671 912.913,455.671 920,440.5C 931.829,423.502 947.996,413.502 968.5,410.5 Z M 979.5,455.5 C 988.754,453.53 993.587,457.196 994,466.5C 994.667,527.833 994.667,589.167 994,650.5C 992.568,662.831 986.568,665.831 976,659.5C 974.908,656.956 974.241,654.289 974,651.5C 973.333,590.5 973.333,529.5 974,468.5C 974.004,463.303 975.837,458.97 979.5,455.5 Z"/></g>
<g><path style="opacity:0.987" fill="#fefffe" d="M 261.5,453.5 C 274.228,464.706 287.561,475.206 301.5,485C 313.9,492.868 326.9,499.701 340.5,505.5C 369.907,493.14 395.907,475.807 418.5,453.5C 432.21,482.595 447.71,510.595 465,537.5C 445.327,585.537 415.827,626.704 376.5,661C 365.175,669.817 353.175,677.65 340.5,684.5C 305.887,665.061 277.053,639.061 254,606.5C 239.368,585.328 226.535,562.994 215.5,539.5C 232.909,512.019 248.242,483.353 261.5,453.5 Z"/></g>
<g><path style="opacity:0.979" fill="#fefffe" d="M 204.5,554.5 C 214.856,573.527 226.023,592.194 238,610.5C 247.234,623.124 257.067,635.291 267.5,647C 250.739,692.364 224.406,731.197 188.5,763.5C 160.244,727.327 139.577,686.993 126.5,642.5C 141.044,628.458 155.544,614.125 170,599.5C 182.506,585.175 194.006,570.175 204.5,554.5 Z"/></g>
<g><path style="opacity:0.979" fill="#fefffe" d="M 474.5,554.5 C 486.704,569.891 499.204,585.224 512,600.5C 526.123,614.791 540.29,628.791 554.5,642.5C 541.343,686.817 520.843,727.151 493,763.5C 456.709,731.439 430.209,692.606 413.5,647C 438.716,619.406 459.049,588.573 474.5,554.5 Z"/></g>
<g><path style="opacity:0.968" fill="#fefffe" d="M 841.5,644.5 C 857.833,644.5 874.167,644.5 890.5,644.5C 890.5,664.167 890.5,683.833 890.5,703.5C 874.167,703.5 857.833,703.5 841.5,703.5C 841.5,683.833 841.5,664.167 841.5,644.5 Z"/></g>
<g><path style="opacity:0.984" fill="#fefffe" d="M 278.5,659.5 C 288.409,668.131 298.742,676.298 309.5,684C 319.222,690.863 329.556,696.696 340.5,701.5C 363.055,690.723 383.388,676.723 401.5,659.5C 413.776,689.408 430.11,716.741 450.5,741.5C 433.479,776.728 409.479,806.228 378.5,830C 367.601,837.619 355.934,843.952 343.5,849C 341.5,849.667 339.5,849.667 337.5,849C 299.322,832.161 269.155,805.994 247,770.5C 241.3,760.962 235.8,751.295 230.5,741.5C 251.109,716.96 267.109,689.627 278.5,659.5 Z"/></g>
<g><path style="opacity:0.969" fill="#fefffe" d="M 713.5,725.5 C 755.222,722.054 773.722,741.054 769,782.5C 766.166,796 761.166,808.666 754,820.5C 745.232,836.261 736.065,851.761 726.5,867C 739.829,867.5 753.163,867.667 766.5,867.5C 766.5,877.167 766.5,886.833 766.5,896.5C 738.833,896.5 711.167,896.5 683.5,896.5C 683.98,887.837 684.48,879.17 685,870.5C 693.667,854.5 702.333,838.5 711,822.5C 718.82,807.861 725.82,792.861 732,777.5C 734.61,770.581 734.943,763.581 733,756.5C 730.442,752.788 726.942,751.622 722.5,753C 720.396,755.042 719.229,757.542 719,760.5C 718.5,769.16 718.334,777.827 718.5,786.5C 706.833,786.5 695.167,786.5 683.5,786.5C 683.438,774.036 684.604,761.703 687,749.5C 691.969,737.022 700.802,729.022 713.5,725.5 Z"/></g>
<g><path style="opacity:0.967" fill="#fefffe" d="M 910.5,899.5 C 902.167,899.5 893.833,899.5 885.5,899.5C 864.137,894.948 853.637,881.615 854,859.5C 853.5,849.506 853.334,839.506 853.5,829.5C 866.167,829.5 878.833,829.5 891.5,829.5C 891.163,843.204 891.663,856.871 893,870.5C 897.118,873.592 900.451,872.925 903,868.5C 904.917,854.825 904.917,841.159 903,827.5C 902.008,824.336 900.175,821.836 897.5,820C 892.264,818.661 886.93,818.161 881.5,818.5C 881.5,809.833 881.5,801.167 881.5,792.5C 886.844,792.666 892.177,792.499 897.5,792C 900.333,791.167 902.167,789.333 903,786.5C 905,776.167 905,765.833 903,755.5C 900.569,752.482 897.569,751.815 894,753.5C 892.873,756.377 892.206,759.377 892,762.5C 891.5,768.825 891.334,775.158 891.5,781.5C 878.833,781.5 866.167,781.5 853.5,781.5C 852.964,769.387 853.797,757.387 856,745.5C 860.372,733.815 868.872,727.315 881.5,726C 926.545,719.38 946.045,738.546 940,783.5C 938.24,791.603 933.74,797.77 926.5,802C 933.428,804.594 937.928,809.427 940,816.5C 942.86,833.446 943.193,850.446 941,867.5C 938.403,885.593 928.236,896.26 910.5,899.5 Z"/></g>
<g><path style="opacity:0.956" fill="#fefffe" d="M 816.5,728.5 C 824.5,728.5 832.5,728.5 840.5,728.5C 840.5,784.833 840.5,841.167 840.5,897.5C 827.5,897.5 814.5,897.5 801.5,897.5C 801.667,859.832 801.5,822.165 801,784.5C 799.833,780.667 797.333,778.167 793.5,777C 787.843,776.501 782.176,776.334 776.5,776.5C 776.334,769.492 776.5,762.492 777,755.5C 793.557,751.316 806.724,742.316 816.5,728.5 Z"/></g>
<g><path style="opacity:0.967" fill="#fefffe" d="M 949.5,728.5 C 973.5,728.5 997.5,728.5 1021.5,728.5C 1021.67,741.171 1021.5,753.838 1021,766.5C 1013.16,810.18 1005.33,853.846 997.5,897.5C 984.833,897.5 972.167,897.5 959.5,897.5C 968.295,851.524 976.962,805.524 985.5,759.5C 973.5,759.5 961.5,759.5 949.5,759.5C 949.5,749.167 949.5,738.833 949.5,728.5 Z"/></g>
</svg>
